# xmcd
#
# Track frame offsets: 
#        150
#        32811
#        65671
#        91489
#        115052
#        148879
#        191594
#        219696
#
# Disc length: 3431 seconds
#
# Revision: 1
# Processed by: cddbd v1.5.2PL0 Copyright (c) Steve Scherf et al.
# Submitted via: ExactAudioCopy v0.99pb4
#
DISCID=7b0d6508
DTITLE=John Abercrombie Quartet - Wait till You See Her
DYEAR=2009
DGENRE=Post-Bop
TTITLE0=Sad Song
TTITLE1=Line-Up
TTITLE2=Wait till You See Her
TTITLE3=Trio
TTITLE4=I've Overlooked Before
TTITLE5=Anniversary Waltz
TTITLE6=Out of Towner
TTITLE7=Chic of Araby
EXTD=John Abercrombie (b.1944): guitar\nMark Feldman (b.1955): violin\n
EXTD=Thomas Morgan: double bass\nJoey Baron (b.1955): drums\nRecorded 
EXTD=by James A. Farber at Avatar Studios, New York US-NY, 2008-12.\nP
EXTD=roduced by Manfred Eicher.\nCD: ECM 2102 [Universal B0013327-02] 
EXTD=(2009-09-08), UPC 602517986305, BMG D175072.
EXTT0=(John Abercrombie)
EXTT1=(John Abercrombie)
EXTT2=(Richard Rodgers//Lorenz Hart)
EXTT3=(John Abercrombie)
EXTT4=(John Abercrombie)
EXTT5=(John Abercrombie)
EXTT6=(John Abercrombie)
EXTT7=(John Abercrombie)
PLAYORDER=
